<?xml version="1.0" encoding="utf-8"?>
<!-- Generator: Adobe Illustrator 23.0.1, SVG Export Plug-In . SVG Version: 6.00 Build 0)  -->
<svg version="1.1" id="Layer_1" xmlns="http://www.w3.org/2000/svg" xmlns:xlink="http://www.w3.org/1999/xlink" x="0px" y="0px"
	 viewBox="0 0 570.64 884.56" style="enable-background:new 0 0 570.64 884.56;" xml:space="preserve">
<style type="text/css">
	.st0{fill:#CAF0F9;}
	.st1{fill:#5FB2B8;}
	.st2{fill:#2A7D8D;}
	.st3{fill:#0D535F;}
	.st4{fill:#AEDAE5;}
	.st5{fill:#78C1D2;}
	.st6{fill:#6EB1C2;}
</style>
<rect x="20.71" y="21.39" class="st0" width="534.73" height="208.9"/>
<rect x="20.71" y="230.29" class="st1" width="534.73" height="631.77"/>
<g>
	<polygon class="st2" points="514.12,466.29 506.12,438.29 505.12,407.29 514.12,376.29 532.12,357.29 541.12,328.29 536.12,303.29 
		490.12,259.29 490.12,238.29 471.12,230.29 191.12,230.29 173.12,251.29 160.12,240.79 125.12,240.79 116.12,268.29 55.12,240.29 
		36.12,309.29 45.12,391.29 70.12,421.29 48.12,452.29 83.12,468.29 105.12,468.29 112.52,505.29 506.88,505.29 	"/>
	<path class="st3" d="M112.52,505.29l12.6,63l27,19l-3,31l94,160c0,0,11,21,7,33l63,45l37-66l39-6l31-54l22-19l11-83l17-24l31-11
		v-26v-31l5.76-31H112.52z"/>
</g>
<polygon class="st4" points="192.12,230.29 213.12,211.29 247.12,200.29 283.12,139.29 306.7,93.29 312.12,77.29 342.12,43.29 
	336.12,101.29 307.12,142.29 317.12,230.29 "/>
<polygon class="st5" points="342.12,43.29 336.12,101.29 307.12,142.29 317.12,230.29 385.12,230.29 336.12,101.29 348.12,90.29 "/>
<polygon class="st6" points="336.12,101.29 348.12,90.29 407.12,179.29 442.12,219.29 467.12,230.29 385.12,230.29 "/>
<polygon class="st4" points="348.12,90.29 396.12,129.29 396.12,162.7 "/>
<polygon class="st5" points="396.12,162.7 396.12,129.29 411.12,149.79 431.27,206.88 407.12,179.29 "/>
<polygon class="st5" points="247.12,200.29 243.73,230.29 273.44,230.29 "/>
<polygon class="st6" points="247.12,200.29 317.12,230.29 273.44,230.29 "/>
</svg>
