<svg id="Layer_1" data-name="Layer 1" xmlns="http://www.w3.org/2000/svg" xmlns:xlink="http://www.w3.org/1999/xlink" viewBox="0 0 300 300">
    <defs>
        <style>
			.cls-1{fill:url(#linear-gradient);}.cls-2{fill:#174962;}
		</style>
        <linearGradient id="linear-gradient" x1="12" y1="113.28" x2="288.77" y2="113.28" gradientUnits="userSpaceOnUse">
            <stop offset="0" stop-color="#87d8e6"/>
            <stop offset="0.5" stop-color="#68b3c7"/>
            <stop offset="1" stop-color="#174962"/>
        </linearGradient>
    </defs>
    <title>The Métis National Anthem</title>
    <path class="cls-1" d="M27.56,123.16c-.3,0-.09,2-1-.92a33.28,33.28,0,0,1-.66-13.4A51.09,51.09,0,0,1,29.64,96c-.06-.26-.1-.54-.14-.82a35.55,35.55,0,0,1,6.64-8.94,33.12,33.12,0,0,1,9.24-6.37,31.37,31.37,0,0,1,4.85-2,36.89,36.89,0,0,1,5.17-1.3,45.08,45.08,0,0,1,10.93-.53,73.38,73.38,0,0,1,22.34,5.55c-.32-.32-.44-.55,1,0,6.16,2.45,14.38,7,22.63,12.3,1.24.77,2.49,1.51,3.69,2.29a3.68,3.68,0,0,0,1.54.57c3.71,2.49,7,4.81,10,7,10.09,6.92,20,14.31,30.24,21.7s20.63,14.8,31.86,21.53a160.72,160.72,0,0,0,17.63,9.23,86.13,86.13,0,0,0,19.66,6.18,50,50,0,0,0,21.43-.72,46.26,46.26,0,0,0,10.11-4.09,66.3,66.3,0,0,0,9-5.85,57.45,57.45,0,0,0,12.23-13.4,55.19,55.19,0,0,0,7.2-16.16,54.14,54.14,0,0,0,1.88-13.47,50.69,50.69,0,0,0-1.92-14.33,45,45,0,0,0-6.12-13.11,40.59,40.59,0,0,0-9.41-9.76c.15.36-.27.31-1.08,0l-1.52-.67c-.6-.27-1.28-.6-2.05-.91A43,43,0,0,0,255,66.66a40.6,40.6,0,0,0-6.09-.33,36.26,36.26,0,0,0-4.75.44c-2.49.47-3.37,1-1.46,1.23a56.47,56.47,0,0,0-8.36,1.2l-8.45,2.07-1,.25-.92.29-1.73.55-2.93,1a14.52,14.52,0,0,0-2.9,1.16c-.94,1.05-3.16,2.72-8.31,5.37-5,2.93-13,6.83-24.18,14.58-1.12.72-2.22,1.6-3.43,2.43l-1.83,1.28c-.61.45-1.2.92-1.81,1.39-2.45,1.83-4.87,3.82-7,5.73-1.07,1-2.13,1.89-3,2.81l-1.33,1.32c-.42.42-.8.85-1.16,1.24-.75.78-1.34,1.49-1.83,2.09-.26.3-.43.56-.61.79l-.23.32c-.05.08-.09.14-.12.2-.81,1.32-.63,1.29,0,.58l.27-.3.2-.19.64-.66,1.64-1.62,1.74-1.62c.56-.48,1-.89,1.41-1.16.71-.54.88-.54,0,.55l1.25-1.26,1.32-1.21c.88-.81,1.74-1.63,2.68-2.39s1.83-1.56,2.76-2.32l2.87-2.21c.94-.75,1.94-1.43,2.93-2.12l3-2.07,3.07-1.94c1-.63,2-1.32,3.1-1.88l3.17-1.78c1.05-.6,2.1-1.2,3.2-1.72L200,87.11c1.09-.53,2.16-1.1,3.29-1.55,2.23-1,4.45-1.94,6.69-2.85l6.84-2.51.86-.31.87-.26,1.75-.53L223.81,78l1.74-.53c.58-.18,1.16-.36,1.76-.49l3.55-.86,3.55-.86,1.76-.43,1.64-.31a48.58,48.58,0,0,1,6.51-.73,36,36,0,0,1,12.41,1.55,30.25,30.25,0,0,1,10.55,5.83c6.17,5.24,10.18,13.17,11.33,21.63a41.3,41.3,0,0,1-.25,12.84,42.55,42.55,0,0,1-4.23,12.24,44.05,44.05,0,0,1-7.77,10.54,51.25,51.25,0,0,1-10.66,8.14c-1,.58-2,1.1-3,1.62-.52.29-1,.45-1.47.69a15.59,15.59,0,0,1-1.46.62,32.56,32.56,0,0,1-6.06,1.74,38.26,38.26,0,0,1-13,0,48.59,48.59,0,0,1-6.18-1.21,75,75,0,0,1-9.09-3.07A116,116,0,0,1,204,141.55c-4.13-2.24-8.54-4.91-13.17-7.93-9.26-6-19.35-13.5-30.07-21.58s-22.09-16.78-34.26-25c-6.09-4.08-12.4-8-19-11.59A130.79,130.79,0,0,0,87,66.32a89,89,0,0,0-10.93-2.95,70.93,70.93,0,0,0-11.24-1.32,54.45,54.45,0,0,0-21.91,3.58A47.16,47.16,0,0,0,25.69,77.4,50.22,50.22,0,0,0,15.86,93a53.68,53.68,0,0,0-2.45,7.8,55.34,55.34,0,0,0-.93,19.6,53.94,53.94,0,0,0,5,16.11,48.86,48.86,0,0,0,6.88,10.2,49.45,49.45,0,0,0,9.4,8.23,52.53,52.53,0,0,0,11,5.59l1.42.53,1.43.45c.48.15,1,.32,1.43.44l1.43.36a54.69,54.69,0,0,0,5.7,1.23,50.38,50.38,0,0,0,5.66.73l2.8.21c.93.07,1.85,0,2.76,0A76.94,76.94,0,0,0,87.3,161.9a96,96,0,0,0,15.57-5.82,127.55,127.55,0,0,0,14.39-7.92,128.31,128.31,0,0,1-12.66,5.53,131.72,131.72,0,0,0,13.92-7.23l2.83-1.73c.87-.57,1.68-1.12,2.42-1.62,1.5-1,2.68-1.87,3.5-2.53a93.29,93.29,0,0,0,8.74-7.09c1.35-1.33,1.42-1.65.69-1.36-1.42.6-6.09,3.53-10,5.57-2.76,1.58-2.47,1-2.56.67s-.54-.37-4.81,2.06c1.49-1,2.81-1.78,4-2.58l3.39-2.31,3.34-2.4c1.15-.87,2.41-1.79,3.81-2.89.18-.42-4.09,3-8.14,5.83l-2.9,2-2.32,1.44c-1.21.72-1.68.9-.75.07A148.74,148.74,0,0,0,137,126.86c-1.14.55-5.94,4.35-10.61,7.57-2.33,1.6-4.6,3.11-6.28,4.09s-2.72,1.53-2.57,1.25c.8-.51,2.24-1.43,4-2.48.88-.53,1.81-1.14,2.78-1.75s2-1.26,2.92-1.92c1.93-1.29,3.74-2.63,5.13-3.7a11,11,0,0,0,2.44-2.32,26.14,26.14,0,0,0-3,2.19l-2.75,2.05-2.55,1.83a122.73,122.73,0,0,0,17-14.66c1.07-1.22,1.18-1.56.08-.81s-3.42,2.58-7.31,5.56c2.62-2.17,5.77-4.81,8.85-7.61,1.53-1.4,3.06-2.84,4.48-4.26s2.8-2.86,3.89-4.12c0,0,0,0,0,0-1.12,1.24-2.87,3-4.6,4.66s-3.49,3.28-4.7,4.41c3-2.77,5.92-5.66,8.65-8.59l-1.68,1.31c-2.15,2.11-4.38,4.21-6.71,6.37q3-2.76,5.8-5.66l-5.42,4.31c-7.31,6.27-15,11.37-19.15,14.36A137.72,137.72,0,0,1,98.9,144.24c-1.18.46-2.34,1-3.53,1.41l-3.55,1.26L88.23,148c-.59.2-1.2.35-1.8.49l-1.81.44a72.24,72.24,0,0,1-14.52,1.93,59.23,59.23,0,0,1-14.22-1.57,41.8,41.8,0,0,1-12.8-5.16,34.7,34.7,0,0,1-9.79-9A35.86,35.86,0,0,1,27.56,123.16Z"/>
    <path class="cls-2" d="M86.64,186.91a1.63,1.63,0,0,1,.18.88v.62a1.67,1.67,0,0,1-.18.89.65.65,0,0,1-.6.27H78.75v23.3c0,.57-.51.85-1.54.85H76.9c-1,0-1.54-.28-1.54-.85v-23.3H68a.67.67,0,0,1-.58-.27,1.57,1.57,0,0,1-.19-.89v-.62a1.53,1.53,0,0,1,.19-.88.67.67,0,0,1,.58-.27H86A.65.65,0,0,1,86.64,186.91Z"/>
    <path class="cls-2" d="M94.38,185.48V195.9A9.74,9.74,0,0,1,97.06,194a7.09,7.09,0,0,1,3.22-.76,7,7,0,0,1,4.28,1.37c1.24.92,1.86,2.54,1.86,4.88v13.39c0,.57-.52.85-1.55.85h-.15c-1,0-1.55-.28-1.55-.85V199.79a3.71,3.71,0,0,0-1-2.74,4,4,0,0,0-2.93-1,4.75,4.75,0,0,0-2.35.6,8,8,0,0,0-1.8,1.31,4.86,4.86,0,0,0-.71.79v14.12c0,.57-.52.85-1.55.85h-.15c-1,0-1.54-.28-1.54-.85V185.48c0-.57.51-.85,1.54-.85h.15C93.86,184.63,94.38,184.91,94.38,185.48Z"/>
    <path class="cls-2" d="M126.44,195.8q2,2.56,2,7.5a1.86,1.86,0,0,1-.47,1c-.31.41-.58.62-.81.62H115a7.5,7.5,0,0,0,1.66,4.7,5.61,5.61,0,0,0,4.28,1.51,8.61,8.61,0,0,0,2.8-.41,14.81,14.81,0,0,0,2-.81,3.87,3.87,0,0,1,.89-.4c.25,0,.54.26.86.77a2.48,2.48,0,0,1,.49,1.16c0,.31-.33.66-1,1.06a9.16,9.16,0,0,1-2.56,1,13.93,13.93,0,0,1-3.42.41q-4.81,0-7.14-2.51t-2.31-7.68q0-5.13,2.27-7.79t6.72-2.67A7.09,7.09,0,0,1,126.44,195.8ZM115,202.11h10q0-6.11-4.63-6.1Q115.4,196,115,202.11Z"/>
    <path class="cls-2" d="M168.5,187.41v25.46c0,.57-.52.85-1.55.85h-.27c-1,0-1.54-.28-1.54-.85V192.12l-.08.15-7.68,13.35a.9.9,0,0,1-.84.5H155a.91.91,0,0,1-.85-.5L146.35,192l-.08-.16v21c0,.57-.51.85-1.54.85h-.27c-1,0-1.55-.28-1.55-.85V187.41c0-.57.52-.85,1.55-.85h1.39a1.7,1.7,0,0,1,1.62.69l7.29,12.66,1,2.43,1-2.2,7.29-12.89a1.69,1.69,0,0,1,1.62-.69H167C168,186.56,168.5,186.84,168.5,187.41Z"/>
    <path class="cls-2" d="M189,195.8q2,2.56,2,7.5a1.86,1.86,0,0,1-.47,1c-.31.41-.57.62-.81.62H177.56a7.5,7.5,0,0,0,1.66,4.7,5.61,5.61,0,0,0,4.28,1.51,8.61,8.61,0,0,0,2.8-.41,14.81,14.81,0,0,0,1.95-.81,3.87,3.87,0,0,1,.89-.4c.25,0,.54.26.86.77a2.48,2.48,0,0,1,.49,1.16c0,.31-.32.66-1,1.06a9.16,9.16,0,0,1-2.56,1,13.93,13.93,0,0,1-3.42.41q-4.81,0-7.14-2.51t-2.31-7.68q0-5.13,2.28-7.79t6.71-2.67A7.09,7.09,0,0,1,189,195.8Zm-11.46,6.31h10q0-6.11-4.63-6.1Q178,196,177.56,202.11Zm9.32-16.59c.29.07.44.2.44.38a1.4,1.4,0,0,1-.32.68c-.22.29-.83,1-1.84,2.14l-1.46,1.66a2.53,2.53,0,0,1-2,.69c-.59,0-.89-.13-.89-.38a4.37,4.37,0,0,1,.56-1.31c.37-.7.93-1.69,1.68-3a1.73,1.73,0,0,1,.89-.77,4.15,4.15,0,0,1,1.5-.23A6,6,0,0,1,186.88,185.52Z"/>
    <path class="cls-2" d="M200.13,189.41v4.06h3.24a.65.65,0,0,1,.6.27,1.64,1.64,0,0,1,.17.88v.47a1.64,1.64,0,0,1-.17.88.65.65,0,0,1-.6.27h-3.24v12a3.4,3.4,0,0,0,.56,2.24,2,2,0,0,0,1.53.62,4.41,4.41,0,0,0,1.1-.1,2.51,2.51,0,0,1,.56-.09c.23,0,.42.23.57.71a3.63,3.63,0,0,1,.23,1.1c0,.77-.93,1.16-2.81,1.16a5.5,5.5,0,0,1-3.45-1.18c-1-.78-1.53-2.17-1.53-4.15V196.24H195a.67.67,0,0,1-.58-.27,1.53,1.53,0,0,1-.19-.88v-.47a1.53,1.53,0,0,1,.19-.88.67.67,0,0,1,.58-.27h1.93l.46-4.06c.06-.56.47-.84,1.24-.84H199C199.75,188.57,200.13,188.85,200.13,189.41Z"/>
    <path class="cls-2" d="M212.86,185.48v2.27c0,.57-.51.85-1.54.85h-.46c-1,0-1.55-.28-1.55-.85v-2.27c0-.57.52-.85,1.55-.85h.46C212.35,184.63,212.86,184.91,212.86,185.48Zm-.15,8.76v18.63c0,.57-.51.85-1.54.85H211c-1,0-1.54-.28-1.54-.85V194.24c0-.57.51-.85,1.54-.85h.16C212.2,193.39,212.71,193.67,212.71,194.24Z"/>
    <path class="cls-2" d="M227.93,193.7c1,.33,1.56.72,1.56,1.15a2.79,2.79,0,0,1-.44,1.3c-.3.52-.56.79-.79.79-.08,0-.42-.2-1-.52a5.39,5.39,0,0,0-2.49-.49,4.28,4.28,0,0,0-2.45.66,2,2,0,0,0-1,1.78,3,3,0,0,0,.7,2.08,5.08,5.08,0,0,0,2.31,1.27,19.77,19.77,0,0,1,3.77,1.53,4.63,4.63,0,0,1,1.85,1.85,6.37,6.37,0,0,1,.56,2.87,5.48,5.48,0,0,1-.91,3.07,6.34,6.34,0,0,1-2.47,2.16,7.48,7.48,0,0,1-3.45.79,11.07,11.07,0,0,1-3.07-.4,7.58,7.58,0,0,1-2.24-1c-.55-.38-.83-.73-.83-1a2.52,2.52,0,0,1,.49-1.16c.32-.51.61-.77.86-.77a3.67,3.67,0,0,1,.74.43,7.63,7.63,0,0,0,1.64.77,6.52,6.52,0,0,0,2.18.34q3.78,0,3.78-3.12a2.69,2.69,0,0,0-.85-2.08,7.76,7.76,0,0,0-3-1.39,8.81,8.81,0,0,1-4.21-2.22,5.26,5.26,0,0,1-1.15-3.57,5.12,5.12,0,0,1,.83-2.89,5.64,5.64,0,0,1,2.27-2,7.34,7.34,0,0,1,3.3-.71A11.36,11.36,0,0,1,227.93,193.7Z"/>
    <path class="cls-2" d="M79.64,224.59v13.89c0,.31-.28.46-.84.46h-.42a.83.83,0,0,1-.74-.29L70.7,228.17l-.57-1.08v11.39c0,.31-.28.46-.84.46h-.15c-.56,0-.84-.15-.84-.46V224.59c0-.31.28-.46.84-.46h.44a1.28,1.28,0,0,1,.53.08,1,1,0,0,1,.36.32l6.71,10.14.63,1.18V224.59c0-.31.28-.46.84-.46h.15C79.36,224.13,79.64,224.28,79.64,224.59Z"/>
    <path class="cls-2" d="M90.59,228.64a2.92,2.92,0,0,1,1.09,2.43v4.72a10.22,10.22,0,0,0,.13,2c.08.4.12.62.12.67s-.13.29-.4.36a2.52,2.52,0,0,1-.73.12.47.47,0,0,1-.44-.33,3.59,3.59,0,0,1-.21-.68c-.05-.24-.08-.39-.09-.46A4.58,4.58,0,0,1,86.52,239a4,4,0,0,1-2.61-.8,2.86,2.86,0,0,1-1-2.36,3.06,3.06,0,0,1,1-2.49,5,5,0,0,1,2.46-1.08,22.9,22.9,0,0,1,3.53-.26v-1a1.64,1.64,0,0,0-.54-1.27,2.62,2.62,0,0,0-1.77-.5,5.57,5.57,0,0,0-1.62.22,10.74,10.74,0,0,0-1.16.44,4,4,0,0,1-.51.23c-.14,0-.29-.14-.47-.43a1.45,1.45,0,0,1-.26-.63c0-.18.18-.38.56-.59a5.46,5.46,0,0,1,1.48-.53,8.05,8.05,0,0,1,1.91-.22A4.8,4.8,0,0,1,90.59,228.64Zm-3.26,5a4,4,0,0,0-1.75.59,1.63,1.63,0,0,0-.76,1.49,1.73,1.73,0,0,0,.45,1.29,1.86,1.86,0,0,0,1.34.44,3.93,3.93,0,0,0,1.78-.38A7.46,7.46,0,0,0,89.91,236v-2.49C88.86,233.57,88,233.61,87.33,233.68Z"/>
    <path class="cls-2" d="M97.74,225.68v2.21h1.77a.37.37,0,0,1,.33.15,1,1,0,0,1,.09.48v.26a1,1,0,0,1-.09.48.37.37,0,0,1-.33.15H97.74V236a1.79,1.79,0,0,0,.31,1.22,1,1,0,0,0,.83.34,3,3,0,0,0,.6,0,1,1,0,0,1,.3-.05c.13,0,.23.13.32.38a2.22,2.22,0,0,1,.12.6c0,.43-.51.64-1.53.64a3,3,0,0,1-1.89-.65,2.7,2.7,0,0,1-.83-2.26v-6.71h-1a.35.35,0,0,1-.31-.15.85.85,0,0,1-.11-.48v-.26a.85.85,0,0,1,.11-.48.35.35,0,0,1,.31-.15h1l.26-2.21c0-.31.25-.46.67-.46h.21C97.53,225.22,97.74,225.37,97.74,225.68Z"/>
    <path class="cls-2" d="M105,223.54v1.24c0,.31-.28.46-.84.46H104c-.56,0-.84-.15-.84-.46v-1.24c0-.31.28-.47.84-.47h.25C104.76,223.07,105,223.23,105,223.54Zm-.08,4.77v10.17c0,.31-.28.46-.84.46H104c-.56,0-.84-.15-.84-.46V228.31c0-.31.28-.46.84-.46h.09C104.68,227.85,105,228,105,228.31Z"/>
    <path class="cls-2" d="M116.8,229.23a6.38,6.38,0,0,1,1.23,4.22,6.26,6.26,0,0,1-1.21,4.16,4.46,4.46,0,0,1-3.57,1.42,4.56,4.56,0,0,1-3.63-1.44,6.11,6.11,0,0,1-1.25-4.14,6.3,6.3,0,0,1,1.26-4.21,4.51,4.51,0,0,1,3.62-1.47A4.36,4.36,0,0,1,116.8,229.23Zm-5.86,1.05a5.42,5.42,0,0,0-.72,3.13,5.35,5.35,0,0,0,.72,3.1,2.55,2.55,0,0,0,2.25,1,2.63,2.63,0,0,0,2.27-1,6.91,6.91,0,0,0,0-6.22,2.63,2.63,0,0,0-2.27-1A2.58,2.58,0,0,0,110.94,230.28Z"/>
    <path class="cls-2" d="M128.77,228.67a3.37,3.37,0,0,1,.92,2.51v7.3c0,.31-.28.46-.84.46h-.09c-.56,0-.84-.15-.84-.46v-7.14a2,2,0,0,0-.56-1.5,2.19,2.19,0,0,0-1.59-.54,2.94,2.94,0,0,0-1.42.4,4.2,4.2,0,0,0-1.23,1.08v7.7c0,.31-.28.46-.84.46h-.08c-.57,0-.85-.15-.85-.46v-7.39a11.5,11.5,0,0,0-.12-2,6.68,6.68,0,0,1-.13-.66c0-.17.13-.29.4-.37a2.55,2.55,0,0,1,.74-.11.45.45,0,0,1,.43.3,3.43,3.43,0,0,1,.21.64c.05.23.08.37.09.44a5.17,5.17,0,0,1,1.54-1.15,4,4,0,0,1,1.75-.42A3.43,3.43,0,0,1,128.77,228.67Z"/>
    <path class="cls-2" d="M140.32,228.64a2.92,2.92,0,0,1,1.09,2.43v4.72a10.22,10.22,0,0,0,.13,2c.08.4.12.62.12.67s-.13.29-.4.36a2.52,2.52,0,0,1-.73.12.47.47,0,0,1-.44-.33,3.59,3.59,0,0,1-.21-.68c0-.24-.08-.39-.09-.46a4.58,4.58,0,0,1-3.54,1.58,4,4,0,0,1-2.61-.8,2.86,2.86,0,0,1-1-2.36,3.06,3.06,0,0,1,1-2.49,5,5,0,0,1,2.46-1.08,22.9,22.9,0,0,1,3.53-.26v-1a1.64,1.64,0,0,0-.54-1.27,2.62,2.62,0,0,0-1.77-.5,5.57,5.57,0,0,0-1.62.22,10.74,10.74,0,0,0-1.16.44,4,4,0,0,1-.51.23c-.14,0-.29-.14-.47-.43a1.45,1.45,0,0,1-.26-.63c0-.18.18-.38.56-.59a5.46,5.46,0,0,1,1.48-.53,8.05,8.05,0,0,1,1.91-.22A4.8,4.8,0,0,1,140.32,228.64Zm-3.26,5a4,4,0,0,0-1.75.59,1.63,1.63,0,0,0-.76,1.49,1.73,1.73,0,0,0,.45,1.29,1.86,1.86,0,0,0,1.34.44,3.93,3.93,0,0,0,1.78-.38,7.46,7.46,0,0,0,1.52-1.07v-2.49C138.59,233.57,137.73,233.61,137.06,233.68Z"/>
    <path class="cls-2" d="M147,223.54V236a1.85,1.85,0,0,0,.3,1.22,1,1,0,0,0,.83.34,2.83,2.83,0,0,0,.6,0,1.08,1.08,0,0,1,.31-.05c.12,0,.23.13.31.38a2,2,0,0,1,.13.6c0,.43-.51.64-1.54.64a3,3,0,0,1-1.88-.65,2.67,2.67,0,0,1-.83-2.26V223.54c0-.31.28-.47.84-.47h.08C146.66,223.07,147,223.23,147,223.54Z"/>
    <path class="cls-2" d="M163.07,224.46l5,13.85a.6.6,0,0,1,.07.27c0,.24-.3.36-.91.36H167c-.49,0-.77-.11-.84-.34L165,235.15h-6.19l-1.2,3.45c-.07.23-.35.34-.84.34h-.1c-.61,0-.91-.12-.91-.36a1.06,1.06,0,0,1,.06-.29l5-13.83q.1-.33.84-.33h.61C162.71,224.13,163,224.24,163.07,224.46Zm-1.18,1.6a7.45,7.45,0,0,1-.32,1.22l-2.21,6.27h5l-2.21-6.27a11,11,0,0,1-.25-1.22Z"/>
    <path class="cls-2" d="M178,228.67a3.36,3.36,0,0,1,.91,2.51v7.3c0,.31-.28.46-.84.46h-.09c-.56,0-.84-.15-.84-.46v-7.14a2,2,0,0,0-.56-1.5,2.18,2.18,0,0,0-1.58-.54,2.91,2.91,0,0,0-1.42.4,4.37,4.37,0,0,0-1.24,1.08v7.7c0,.31-.28.46-.84.46h-.08c-.56,0-.84-.15-.84-.46v-7.39a11.24,11.24,0,0,0-.13-2c-.08-.4-.13-.62-.13-.66s.14-.29.4-.37a2.6,2.6,0,0,1,.74-.11.45.45,0,0,1,.43.3,3.43,3.43,0,0,1,.21.64c.05.23.08.37.1.44a5.13,5.13,0,0,1,1.53-1.15,4,4,0,0,1,1.75-.42A3.45,3.45,0,0,1,178,228.67Z"/>
    <path class="cls-2" d="M184.83,225.68v2.21h1.76a.35.35,0,0,1,.33.15,1,1,0,0,1,.09.48v.26a1,1,0,0,1-.09.48.35.35,0,0,1-.33.15h-1.76V236a1.85,1.85,0,0,0,.3,1.22,1,1,0,0,0,.83.34,2.83,2.83,0,0,0,.6,0,1.13,1.13,0,0,1,.31-.05c.12,0,.23.13.31.38a2,2,0,0,1,.13.6c0,.43-.51.64-1.54.64a3,3,0,0,1-1.88-.65,2.67,2.67,0,0,1-.83-2.26v-6.71H182a.37.37,0,0,1-.32-.15.85.85,0,0,1-.11-.48v-.26a.85.85,0,0,1,.11-.48.37.37,0,0,1,.32-.15h1.05l.25-2.21c0-.31.25-.46.67-.46h.22C184.62,225.22,184.83,225.37,184.83,225.68Z"/>
    <path class="cls-2" d="M192.07,223.54v5.68a5.3,5.3,0,0,1,1.46-1,4,4,0,0,1,4.09.33,3.11,3.11,0,0,1,1,2.67v7.3c0,.31-.28.46-.84.46h-.08c-.56,0-.85-.15-.85-.46v-7.14a2,2,0,0,0-.54-1.49,2.2,2.2,0,0,0-1.6-.55,2.61,2.61,0,0,0-1.29.33,4.2,4.2,0,0,0-1,.71,2.22,2.22,0,0,0-.39.44v7.7c0,.31-.28.46-.85.46h-.08c-.56,0-.84-.15-.84-.46V223.54c0-.31.28-.47.84-.47h.08C191.79,223.07,192.07,223.23,192.07,223.54Z"/>
    <path class="cls-2" d="M209.91,229.17a6.52,6.52,0,0,1,1.1,4.09,1,1,0,0,1-.26.53c-.16.22-.31.33-.44.33h-6.65a4.11,4.11,0,0,0,.91,2.57,3,3,0,0,0,2.33.82,4.66,4.66,0,0,0,1.53-.22,7.58,7.58,0,0,0,1.06-.44,1.94,1.94,0,0,1,.49-.22c.14,0,.29.14.47.42a1.45,1.45,0,0,1,.26.63c0,.17-.17.36-.52.58a4.87,4.87,0,0,1-1.4.54,7.54,7.54,0,0,1-1.87.23,5.06,5.06,0,0,1-3.89-1.37,6,6,0,0,1-1.26-4.19,6.36,6.36,0,0,1,1.24-4.25,4.55,4.55,0,0,1,3.66-1.45A3.84,3.84,0,0,1,209.91,229.17Zm-6.25,3.44h5.47q0-3.33-2.52-3.33Q203.9,229.28,203.66,232.61Z"/>
    <path class="cls-2" d="M227.59,228.51a3.16,3.16,0,0,1,1,2.67v7.3c0,.31-.28.46-.84.46h-.09c-.56,0-.84-.15-.84-.46v-7.14a2.09,2.09,0,0,0-.51-1.49,2,2,0,0,0-1.51-.55,3.45,3.45,0,0,0-2.59,1.48,2.31,2.31,0,0,1,0,.42v7.28c0,.31-.28.46-.84.46h-.08c-.56,0-.84-.15-.84-.46v-7.14a2.09,2.09,0,0,0-.52-1.49,2,2,0,0,0-1.5-.55,2.52,2.52,0,0,0-1.26.33,4.26,4.26,0,0,0-.94.7,2.84,2.84,0,0,0-.37.42v7.73c0,.31-.28.46-.84.46h-.09c-.56,0-.84-.15-.84-.46v-7.39a10.34,10.34,0,0,0-.13-2q-.12-.6-.12-.66c0-.17.13-.29.4-.37A2.49,2.49,0,0,1,215,228a.47.47,0,0,1,.44.3,3.43,3.43,0,0,1,.21.64c0,.23.08.37.09.44a5.25,5.25,0,0,1,1.42-1.12,3.71,3.71,0,0,1,1.78-.45,4.17,4.17,0,0,1,1.78.39,2.49,2.49,0,0,1,1.23,1.35,5.63,5.63,0,0,1,1.53-1.25,3.6,3.6,0,0,1,1.82-.49A3.77,3.77,0,0,1,227.59,228.51Z"/>
</svg>
