<svg id="Layer_1" data-name="Layer 1" xmlns="http://www.w3.org/2000/svg" xmlns:xlink="http://www.w3.org/1999/xlink" viewBox="0 0 300 300">
    <defs>
        <style>
			.cls-1{fill:url(#linear-gradient);}.cls-2{font-size:16px;fill:#174962;font-family:Asap-Regular, Asap;}.cls-3{letter-spacing:0.02em;}.cls-4{font-size:52px;}
		</style>
        <linearGradient id="linear-gradient" x1="12" y1="113.28" x2="288.77" y2="113.28" gradientUnits="userSpaceOnUse">
            <stop offset="0" stop-color="#87d8e6"/>
            <stop offset="0.5" stop-color="#68b3c7"/>
            <stop offset="1" stop-color="#174962"/>
        </linearGradient>
    </defs>
    <title>The Metis National Anthem_fr</title>
    <path class="cls-1" d="M27.56,123.16c-.3,0-.09,2-1-.92a33.28,33.28,0,0,1-.66-13.4A51.09,51.09,0,0,1,29.64,96c-.06-.26-.1-.54-.14-.82a35.55,35.55,0,0,1,6.64-8.94,33.12,33.12,0,0,1,9.24-6.37,31.37,31.37,0,0,1,4.85-2,36.89,36.89,0,0,1,5.17-1.3,45.08,45.08,0,0,1,10.93-.53,73.38,73.38,0,0,1,22.34,5.55c-.32-.32-.44-.55,1,0,6.16,2.45,14.38,7,22.63,12.3,1.24.77,2.49,1.51,3.69,2.29a3.68,3.68,0,0,0,1.54.57c3.71,2.49,7,4.81,10,7,10.09,6.92,20,14.31,30.24,21.7s20.63,14.8,31.86,21.53a160.72,160.72,0,0,0,17.63,9.23,86.13,86.13,0,0,0,19.66,6.18,50,50,0,0,0,21.43-.72,46.26,46.26,0,0,0,10.11-4.09,66.3,66.3,0,0,0,9-5.85,57.45,57.45,0,0,0,12.23-13.4,55.19,55.19,0,0,0,7.2-16.16,54.14,54.14,0,0,0,1.88-13.47,50.69,50.69,0,0,0-1.92-14.33,45,45,0,0,0-6.12-13.11,40.59,40.59,0,0,0-9.41-9.76c.15.36-.27.31-1.08,0l-1.52-.67c-.6-.27-1.28-.6-2.05-.91A43,43,0,0,0,255,66.66a40.6,40.6,0,0,0-6.09-.33,36.26,36.26,0,0,0-4.75.44c-2.49.47-3.37,1-1.46,1.23a56.47,56.47,0,0,0-8.36,1.2l-8.45,2.07-1,.25-.92.29-1.73.55-2.93,1a14.52,14.52,0,0,0-2.9,1.16c-.94,1.05-3.16,2.72-8.31,5.37-5,2.93-13,6.83-24.18,14.58-1.12.72-2.22,1.6-3.43,2.43l-1.83,1.28c-.61.45-1.2.92-1.81,1.39-2.45,1.83-4.87,3.82-7,5.73-1.07,1-2.13,1.89-3,2.81l-1.33,1.32c-.42.42-.8.85-1.16,1.24-.75.78-1.34,1.49-1.83,2.09-.26.3-.43.56-.61.79l-.23.32c-.05.08-.09.14-.12.2-.81,1.32-.63,1.29,0,.58l.27-.3.2-.19.64-.66,1.64-1.62,1.74-1.62c.56-.48,1-.89,1.41-1.16.71-.54.88-.54,0,.55l1.25-1.26,1.32-1.21c.88-.81,1.74-1.63,2.68-2.39s1.83-1.56,2.76-2.32l2.87-2.21c.94-.75,1.94-1.43,2.93-2.12l3-2.07,3.07-1.94c1-.63,2-1.32,3.1-1.88l3.17-1.78c1.05-.6,2.1-1.2,3.2-1.72L200,87.11c1.09-.53,2.16-1.1,3.29-1.55,2.23-1,4.45-1.94,6.69-2.85l6.84-2.51.86-.31.87-.26,1.75-.53L223.81,78l1.74-.53c.58-.18,1.16-.36,1.76-.49l3.55-.86,3.55-.86,1.76-.43,1.64-.31a48.58,48.58,0,0,1,6.51-.73,36,36,0,0,1,12.41,1.55,30.25,30.25,0,0,1,10.55,5.83c6.17,5.24,10.18,13.17,11.33,21.63a41.3,41.3,0,0,1-.25,12.84,42.55,42.55,0,0,1-4.23,12.24,44.05,44.05,0,0,1-7.77,10.54,51.25,51.25,0,0,1-10.66,8.14c-1,.58-2,1.1-3,1.62-.52.29-1,.45-1.47.69a15.59,15.59,0,0,1-1.46.62,32.56,32.56,0,0,1-6.06,1.74,38.26,38.26,0,0,1-13,0,48.59,48.59,0,0,1-6.18-1.21,75,75,0,0,1-9.09-3.07A116,116,0,0,1,204,141.55c-4.13-2.24-8.54-4.91-13.17-7.93-9.26-6-19.35-13.5-30.07-21.58s-22.09-16.78-34.26-25c-6.09-4.08-12.4-8-19-11.59A130.79,130.79,0,0,0,87,66.32a89,89,0,0,0-10.93-2.95,70.93,70.93,0,0,0-11.24-1.32,54.45,54.45,0,0,0-21.91,3.58A47.16,47.16,0,0,0,25.69,77.4,50.22,50.22,0,0,0,15.86,93a53.68,53.68,0,0,0-2.45,7.8,55.34,55.34,0,0,0-.93,19.6,53.94,53.94,0,0,0,5,16.11,48.86,48.86,0,0,0,6.88,10.2,49.45,49.45,0,0,0,9.4,8.23,52.53,52.53,0,0,0,11,5.59l1.42.53,1.43.45c.48.15,1,.32,1.43.44l1.43.36a54.69,54.69,0,0,0,5.7,1.23,50.38,50.38,0,0,0,5.66.73l2.8.21c.93.07,1.85,0,2.76,0A76.94,76.94,0,0,0,87.3,161.9a96,96,0,0,0,15.57-5.82,127.55,127.55,0,0,0,14.39-7.92,128.31,128.31,0,0,1-12.66,5.53,131.72,131.72,0,0,0,13.92-7.23l2.83-1.73c.87-.57,1.68-1.12,2.42-1.62,1.5-1,2.68-1.87,3.5-2.53a93.29,93.29,0,0,0,8.74-7.09c1.35-1.33,1.42-1.65.69-1.36-1.42.6-6.09,3.53-10,5.57-2.76,1.58-2.47,1-2.56.67s-.54-.37-4.81,2.06c1.49-1,2.81-1.78,4-2.58l3.39-2.31,3.34-2.4c1.15-.87,2.41-1.79,3.81-2.89.18-.42-4.09,3-8.14,5.83l-2.9,2-2.32,1.44c-1.21.72-1.68.9-.75.07A148.74,148.74,0,0,0,137,126.86c-1.14.55-5.94,4.35-10.61,7.57-2.33,1.6-4.6,3.11-6.28,4.09s-2.72,1.53-2.57,1.25c.8-.51,2.24-1.43,4-2.48.88-.53,1.81-1.14,2.78-1.75s2-1.26,2.92-1.92c1.93-1.29,3.74-2.63,5.13-3.7a11,11,0,0,0,2.44-2.32,26.14,26.14,0,0,0-3,2.19l-2.75,2.05-2.55,1.83a122.73,122.73,0,0,0,17-14.66c1.07-1.22,1.18-1.56.08-.81s-3.42,2.58-7.31,5.56c2.62-2.17,5.77-4.81,8.85-7.61,1.53-1.4,3.06-2.84,4.48-4.26s2.8-2.86,3.89-4.12c0,0,0,0,0,0-1.12,1.24-2.87,3-4.6,4.66s-3.49,3.28-4.7,4.41c3-2.77,5.92-5.66,8.65-8.59l-1.68,1.31c-2.15,2.11-4.38,4.21-6.71,6.37q3-2.76,5.8-5.66l-5.42,4.31c-7.31,6.27-15,11.37-19.15,14.36A137.72,137.72,0,0,1,98.9,144.24c-1.18.46-2.34,1-3.53,1.41l-3.55,1.26L88.23,148c-.59.2-1.2.35-1.8.49l-1.81.44a72.24,72.24,0,0,1-14.52,1.93,59.23,59.23,0,0,1-14.22-1.57,41.8,41.8,0,0,1-12.8-5.16,34.7,34.7,0,0,1-9.79-9A35.86,35.86,0,0,1,27.56,123.16Z"/>
    <text class="cls-2" transform="translate(87.54 194.64)">
        <tspan class="cls-3">L’hymne national</tspan>
        <tspan class="cls-4">
            <tspan x="0.41" y="47">Métis</tspan>
        </tspan>
    </text>
</svg>
